# xmcd
#
# Track frame offsets:
#	150
#	11840
#	21908
#	32206
#	44167
#	56595
#	65299
#	78075
#	89936
#	100681
#	111149
#	122713
#	135123
#	145047
#	157337
#	168250
#
# Disc length: 2383 seconds
#
# Revision: 0
# Processed by: cddbd v1.5.1PL0 Copyright (c) Steve Scherf et al.
# Submitted via: dBpowerAMP V4.0
#
DISCID=d8094d10
DTITLE=Johnny Horton - Country Legend
DYEAR=2005
DGENRE=Country
TTITLE0=Smokey Joe's Barbecue
TTITLE1=In My Home In Shelby County (Down Near Memphis Tennessee)
TTITLE2=Coal Smoke, Valve Oil and Steam
TTITLE3=Plaid and Calico
TTITLE4=Done Rovin
TTITLE5=Candy Jones
TTITLE6=Mean, Mean Son of a Gun
TTITLE7=Shadows on the Old Bayou
TTITLE8=Talk Gobbler Talk (Old Gobbler, the Hound Dog)
TTITLE9=Go and Wash your Dirty Feet (Before your Go to Bed)
TTITLE10=Birds and Butterflies
TTITLE11=Happy Millionaire
TTITLE12=It's a Long Rocky Road
TTITLE13=Words
TTITLE14=Rhythm in my Baby's Walk
TTITLE15=Betty Lorraine (Betty Lou)
EXTD=
EXTT0=
EXTT1=
EXTT2=
EXTT3=
EXTT4=
EXTT5=
EXTT6=
EXTT7=
EXTT8=
EXTT9=
EXTT10=
EXTT11=
EXTT12=
EXTT13=
EXTT14=
EXTT15=
PLAYORDER=
